# xmcd CD database file
#
# Track frame offsets:
#	150
#	10982
#	26430
#	37447
#	50650
#	62070
#	74180
#	87602
#	103994
#	119481
#	137023
#	150658
#	166382
#
# Disc length: 2394 seconds
#
# Revision: 4
# Processed by: cddbd v1.5.2PL0 Copyright (c) Steve Scherf et al.
# Submitted via: CDex 1.79
#
DISCID=c609580d
DTITLE=Grascals and Friends - Country Classics With A Bluegrass Spin
DYEAR=2010
DGENRE=Bluegrass
TTITLE0=Tiger By The Tail (featuring Brad Paisley)
TTITLE1=Folsom Prison Blues (featuring Dierks Bentley)
TTITLE2=Pain Of Lovin' You (featuring Dolly Parton)
TTITLE3=I Am Strong (featuring Dolly Parton)
TTITLE4=Louisiana Saturday Night
TTITLE5=The Year That Clayton Delaney Died (featuring Tom T. Hall)
TTITLE6=White Lightning (featuring Darryl Worley)
TTITLE7=The Devil Went Down To Georgia (featuring Charlie Daniels)
TTITLE8=Leavin' Louisiana In Broad Daylight (featuring The Oak Ridge Boys)
TTITLE9=Mr. Bojangles (featuring Joe Nichols)
TTITLE10=Born To Boogie/All My Rowdy Friends Are Comin' Over Tonight
TTITLE11=Cracker Barrel Swing (instrumental)
TTITLE12=I Am Strong (Bonus Track)
EXTD=YEAR: 2010
EXTT0=
EXTT1=
EXTT2=
EXTT3=
EXTT4=
EXTT5=
EXTT6=
EXTT7=
EXTT8=
EXTT9=
EXTT10=
EXTT11=
EXTT12=
PLAYORDER=
